<?xml version="1.0" encoding="utf-8"?>
<!-- Generator: Adobe Illustrator 21.1.0, SVG Export Plug-In . SVG Version: 6.00 Build 0)  -->
<svg version="1.1" id="Objects" xmlns="http://www.w3.org/2000/svg" xmlns:xlink="http://www.w3.org/1999/xlink" x="0px" y="0px"
	 viewBox="0 0 423.4 384.4" style="enable-background:new 0 0 423.4 384.4;" xml:space="preserve">
<style type="text/css">
	.st0{fill:#036DB6;}
	.st1{fill:#FFFFFE;}
	.st2{fill:#FFFFFF;}
	.st3{fill:#00A0E1;}
	.st4{fill:none;}
	.st5{fill:#A7DFF8;}
	.st6{fill:#FCFAFB;}
	.st7{fill:#E4E4E4;}
	.st8{fill:#CCCBCC;}
	.st9{fill:#A6ACAF;}
	.st10{fill:#B5C8CA;}
	.st11{fill:#EAE7E7;}
	.st12{fill:#49525F;}
	.st13{fill:#00A7E6;}
	.st14{opacity:0.16;fill:#D0D1D2;enable-background:new    ;}
	.st15{fill:#DDE4E8;}
	.st16{fill:#02548F;}
	.st17{fill:#00334A;}
	.st18{opacity:0.54;fill:#00334A;enable-background:new    ;}
	.st19{opacity:0.54;fill:#036DB6;enable-background:new    ;}
	.st20{opacity:0.8;fill:#A7DFF8;enable-background:new    ;}
</style>
<g>
	<path class="st0" d="M123,128.6h38.2c9,0,17.5-3.7,23.7-10.1l23-24l-55.4-5.7L123,128.6z"/>
	<path class="st0" d="M113.1,120.3L64.4,81.9c-7.5-5.9-8.1-17.2-1-23.8c34.4-32,78-53.9,127.4-58.1c9.2-0.8,17.1,6.4,17.1,15.7v65.4
		l0,0l0,0C207.9,81,147.2,80.5,113.1,120.3z"/>
	<path class="st1" d="M123,128.6l-12.2-10.2l-0.1-0.1c34.1-39.8,97.2-39.2,97.2-39.2v0.1v15.1C175,94.4,145.1,107.4,123,128.6z"/>
</g>
<g>
	<path class="st0" d="M97.3,229.9l12.3,50.8l40.9,23.7l-5-36.7c-1.6-11.5-9.1-21.3-19.8-25.8L97.3,229.9z"/>
	<path class="st0" d="M143.8,319.1l-26.1,56.1c-4.1,8.7-15,11.9-23,6.5c-39-26.4-69.7-65.4-85.3-112.9c-2.9-8.7,2.3-18,11.2-20.2
		l62.9-15.4l0.1,0.1h-0.1C83.5,233.3,97,295.3,143.8,319.1z"/>
	<path class="st2" d="M150.6,304.4l-6.7,14.6l-0.1,0.1c-46.8-23.8-60.3-85.8-60.3-85.8h0.1l13.7-3.4
		C105.2,261.9,124.8,287.9,150.6,304.4z"/>
</g>
<g>
	<path class="st3" d="M312.4,118.2l48-38.4c7.5-6,8-17.4,0.8-23.8C326.3,24.3,281.1,3.8,231.3,0c-9.1-0.7-17,6.5-17,15.7v63.5h0.1
		v-0.1C214.5,79,278.2,78.4,312.4,118.2z"/>
	<path class="st3" d="M299.3,128.6h-38.2c-9,0-17.5-3.7-23.7-10.1l-23-24l55.4-5.7L299.3,128.6z"/>
	<path class="st2" d="M299.5,128.5l12.8-10.3l0.1-0.1c-39.6-43.3-98-39.2-98-39.2V79v15.4C247.5,94.5,277.4,107.5,299.5,128.5z"/>
</g>
<g>
	<path class="st3" d="M120.7,133.9l4.1,38c1,8.9-1.8,17.8-7.5,24.6l-21.4,25.4l-11.6-54.5L120.7,133.9z"/>
	<path class="st3" d="M81.7,225.8l-61.6,15c-9.4,2.3-18.6-4.3-19.4-13.9c-3.8-47,7.6-95.3,35-137.1c5-7.7,15.5-9.5,22.8-3.9
		l48.9,37.6v0.1l-0.1-0.1C107.2,123.6,71.2,174.4,81.7,225.8z"/>
	<path class="st2" d="M95.9,222.4l-14,3.5h-0.1c-10.6-51.4,25.5-102.2,25.5-102.2l0.1,0.1l13.6,10.6
		C100.7,160.4,92.7,192,95.9,222.4z"/>
</g>
<g>
	<path class="st0" d="M302.7,133.9l-4.1,38c-1,8.9,1.8,17.8,7.5,24.6l21.4,25.4l11.6-54.5L302.7,133.9z"/>
	<path class="st0" d="M345.1,226.6l58.2,14.2c9.4,2.3,18.6-4.3,19.4-13.9c3.8-47-7.6-95.3-35-137.1c-5-7.7-15.5-9.5-22.8-3.8
		l-49.6,38.3v0.1l0.1-0.1C315.5,124.4,355.6,175.2,345.1,226.6z"/>
	<path class="st1" d="M327.5,222.4l17.4,4.2h0.1c10.6-51.4-29.6-102.3-29.6-102.3l-0.1,0.1l-12.8,9.9
		C322.7,160.4,330.7,192,327.5,222.4z"/>
</g>
<g>
	<path class="st3" d="M325,229.9l-12.3,50.8l-41,23.7l5-36.7c1.6-11.5,9.1-21.3,19.8-25.8L325,229.9z"/>
	<path class="st3" d="M279.3,320.8l25.2,54.4c4.1,8.7,15,11.9,23,6.5c39.1-26.4,69.8-65.4,85.3-112.9c2.9-8.7-2.3-18-11.2-20.2
		L342,234.1l-0.1,0.1h0.1C342.1,234.2,326.1,297,279.3,320.8z"/>
	<path class="st2" d="M271.7,304.4l7.6,16.3l0.1,0.1c46.8-23.8,62.8-86.6,62.8-86.6h-0.1l-17-4.2
		C317.1,261.9,297.4,287.9,271.7,304.4z"/>
</g>
<g>
	<g>
		<line class="st4" x1="150.3" y1="202.1" x2="146.9" y2="193.1"/>
		
			<rect x="148.4" y="192.9" transform="matrix(0.9355 -0.3534 0.3534 0.9355 -60.2589 65.2717)" class="st5" width="0.4" height="9.6"/>
	</g>
	<g>
		<line class="st4" x1="147.7" y1="192.5" x2="153.8" y2="189.9"/>
		
			<rect x="147.4" y="191" transform="matrix(0.9192 -0.3937 0.3937 0.9192 -63.1252 74.7794)" class="st5" width="6.6" height="0.4"/>
	</g>
	<ellipse transform="matrix(0.4212 -0.907 0.907 0.4212 -96.3496 253.3298)" class="st6" cx="150.3" cy="202.2" rx="1.5" ry="1.5"/>
	<ellipse transform="matrix(0.4212 -0.907 0.907 0.4212 -89.9897 245.3723)" class="st6" cx="147.2" cy="193.2" rx="1.5" ry="1.5"/>
	<ellipse transform="matrix(0.4212 -0.907 0.907 0.4212 -82.428 249.5374)" class="st6" cx="154.3" cy="189.3" rx="1.5" ry="1.5"/>
</g>
<g>
	<polygon class="st7" points="246.1,187.8 266,184.6 256.1,197.6 252.3,192.4 251.2,193.9 252.2,189.2 	"/>
	<polygon class="st8" points="252.4,189.2 266,184.6 252.3,192.4 251.2,193.9 252.2,189.2 	"/>
	<polygon class="st9" points="252.3,192.4 252.7,193 251.2,193.9 	"/>
</g>
<path class="st10" d="M210.1,223.9h-9.4h-0.2h-9.4c0,0-2.4,9.4-3.4,10.4h12.8h0.2h12.8C212.5,233.3,210.1,223.9,210.1,223.9z"/>
<path class="st11" d="M216.8,234.6c0,0.5-0.2,1-0.5,1h-31.6c-0.3,0-0.5-0.4-0.5-1l0,0c0-0.5,0.2-1,0.5-1h31.6
	C216.6,233.7,216.8,234.1,216.8,234.6L216.8,234.6z"/>
<path class="st7" d="M154.4,218.3v5.5c0,1.5,1.9,2.7,4.2,2.7h84c2.3,0,4.2-1.2,4.2-2.7v-5.5H154.4z"/>
<path class="st12" d="M246.8,172c0-2.7-1.9-4.7-4.2-4.7h-84c-2.3,0-4.2,2-4.2,4.7v46.2h92.4V172z"/>
<path class="st13" d="M243,174.7c0-2.3-1.8-4.1-3.8-4.1H162c-2.1,0-3.8,1.8-3.8,4.1V215H243V174.7z"/>
<circle class="st12" cx="200.7" cy="222.9" r="2.2"/>
<path class="st14" d="M242.9,205.7l-58.7-35.1h54.9c2.1,0,3.8,1.7,3.8,3.8V205.7z"/>
<g>
	<g>
		<path class="st5" d="M189.4,196.8c-0.6-0.1-0.6,0-0.6-0.2c-0.1-0.3-0.4-0.3-0.8-0.3c-0.3,0-0.5,0-0.7-0.2c-0.3-0.2-0.9-0.2-1-0.3
			c-0.2-0.1-0.1-0.5-0.5-1c-0.4-0.4-1.1-0.5-1.6-0.8c-0.5-0.2-0.3-1.2-1-1.1c-0.7,0.1-0.8,0.3-1.4,0c-0.6-0.3-1.1-0.5-1.4-0.3
			c-0.3,0.2-0.8,0.6-1,0.7c-0.2,0.1-0.6-0.1-0.8-0.1s-0.5-0.2-0.6-0.4c-0.2-0.2,0.3-1.2-0.1-1.2c-0.4,0-0.9-0.2-0.9-0.3
			s0.8-1,0.6-1.1s-0.7-0.1-1.2,0.5c-0.4,0.5-0.8,0.5-1,0.3s-0.7-1.3-0.3-2c0.4-0.6,0.9-1,1.4-1s0.7-0.1,1.2-0.1s1,0.2,1.1,0.3
			c0.1,0.2-0.1,0.4,0.2,0.8c0.3,0.3,0.5,0.2,0.5,0.3s-0.2,0.3-0.4,0.3c-0.1,0-1.1,0.2-0.7,0.4c0.4,0.2,1.1,0,1.3,0.2
			s-0.5,0.7,0.4,0.7s1.5,0.1,2,0.2c0.5,0,0.9,0.1,0.9,0.2c0.1,0.1,0.4-0.4-0.4-0.4c-0.9,0-1.5-0.4-2-0.5s-0.8-0.4-0.8-0.7
			s0-0.6-0.2-0.9c-0.2-0.3-0.6-0.9-0.2-1.2c0.4-0.3,1.3-0.8,1.5-1.2s0.2-0.4,0.7-0.7s1.1-0.6,1.3-0.9c0.3-0.2,0.7-0.6,0.8-0.4
			c0.1,0.2,0.5,0.2,1,0.1c0.5-0.2,1.2-0.6,0.6-0.6c-0.6,0-0.9-0.1-0.7-0.3s-0.4-0.3-0.5-0.2c-0.2,0-0.2-0.3,0.4-0.4
			c0.5-0.1,0.1,0.4,0.5,0.4s0.7-0.4,1-0.5s0.4,0.2,0,0.4s-0.5,0.2,0,0.3s0.7,0.4,1,0.1c0.3-0.2-0.1-0.3-0.1-0.7c0-0.3,0.2-1-0.1-1.2
			s-0.5-0.4-0.5-0.7c0-0.2,0.1-0.7-0.3-0.5c-0.3,0.2-0.6,0.4-0.7,0.2c-0.1-0.1,0.1-0.3-0.2-0.5s-0.3-0.4-0.6-0.4s-0.7-0.2-0.9,0.1
			c-0.2,0.4-0.4,0.7-0.4,0.8c-0.1,0.1,0.2,0.5,0,0.7s-0.9,0.5-1,0.7s-0.5,0.7-0.6,0.4s0.3-0.8-0.2-1c-0.6-0.1-1,0-1.1-0.3
			s-0.3-0.6,0.2-0.8c0.6-0.2,1.1-0.7,1.6-0.7c0.5-0.1,0.2,0.3,0.6,0.3c0.4,0-0.1-0.2,0.5-0.3c0.5-0.1,0.4-0.1,0.3-0.2
			c-0.2-0.2-0.1-0.2,0.3-0.4c0.4-0.2,0.1-0.3,0.5-0.4c0.4-0.1,0.5-0.3,0.7-0.3s0.2,0.1,0.1,0.3c-0.1,0.2-0.2,0.4,0.2,0.2
			s0.6-0.3,0.3,0c-0.3,0.2-0.5,0.2-0.9,0.3s-0.3,0.1-0.1,0.3s0.6,0.2,0.8,0.3s0.3,0.5,0.7,0.3s0.1-0.2,0.6-0.4s1.2-0.3,1.1-0.6
			c-0.1-0.2-0.6-0.4-0.6-0.7c-0.1-0.3,0.7-0.5-0.3-0.6c-0.9-0.1-0.4-0.2-0.9-0.2s-1.3,0-1.6,0.1s-0.5-0.1-0.6,0.1
			c-0.2,0.2,0,0.5-0.1,0.5c-0.2,0-0.4,0.2-0.6,0c-0.1-0.2-0.4-0.4,0-0.5s0.4,0,0.5-0.3c0.1-0.2-0.5-0.2-0.2-0.3s0.5,0,0.9,0
			c0.5,0,1.5,0.2,1.7-0.1c0.2-0.2-0.2-0.2-0.7-0.3c-0.5,0-1.3-0.2-1.6,0c-0.3,0.1-0.8,0.4-0.9,0.6c-0.2,0.2-0.2-0.1-0.5,0
			s-0.8,0.4-0.6,0.5c0.3,0.2,0.3,0.4,0,0.4s-0.4,0.3-0.6,0.3c-0.2,0-0.8,0-0.5-0.2c0.3-0.1,0.6-0.1,0.6-0.5c0-0.3,0.3-0.4,0.3-0.6
			c0-0.1-0.7,0.2-1.3,0.1c-0.6-0.2-0.8-0.4-1.4-0.4c-0.6,0-1.3,0.7-1,0.8c0.4,0.1,0.6-0.1,0.7,0.1c0.1,0.2-0.1,0.3,0.2,0.4
			c0.2,0.1,0.6,0.3,0.1,0.2s-0.3-0.3-1.1-0.3s-1.3-0.2-2.1-0.1c-0.8,0.2-0.7,0.4-1.3,0.2s-1.9-0.8-2.8-0.6c-0.9,0.2-1.9,0.7-2.2,0.8
			c-0.3,0.2-0.4-0.3-0.9-0.2c-0.5,0-1.7-0.1-1.4,0.1c0.2,0.3,0.6,0.3,0.2,0.4c-0.4,0.1-0.9,0.1-1,0.3c-0.2,0.2-0.9,0.4-0.4,0.5
			c0.4,0.1,1.1,0.4,0.8,0.4s-1.9,0.6-2.5,0.7c-0.7,0.1-0.6,1.7-0.1,1.5c0.7-0.2,2.1-1.7,2.5-1.8s0.5,0,0.5,0.2s0.4-0.1,0.8-0.3
			c0.4-0.2,0.5-0.8,0.8-0.7c0.3,0.2,0.4,0.1,0.6,0c0.2-0.1,1.5,0.3,1.7,0.4c0.2,0.1,0.5,0.4,0.7,0.5s0.2,0.4,0.1,0.4
			c-0.2,0-0.2,0.2-0.2,0.4s0.2,0.4-0.2,0.5c-0.3,0.1-0.2,0.4-0.1,0.4c0.2,0,0.3-0.1,0.3-0.3s0.4-0.5,0.4-0.2
			c-0.1,0.2-0.2,0.4-0.2,0.6c0,0.2-0.2,0.1-0.2,0.3s0,0.2,0.2,0.3s0.1,0.2,0,0.5c0,0.3-0.9,1.1-1.1,1.4c-0.1,0.3-0.1,0.7-0.1,1
			s-0.1,0.7,0.2,0.8s0.4,0.2,0.4,0.4s0,0.6,0.2,0.8s0.1,0.2,0.1,0.5s0.2,0.1,0.2,0.4c0,0.2-0.2,0.4,0.2,0.6c0.3,0.2,0.6,0.3,0.5,0
			c-0.2-0.3-0.2-0.6-0.4-1s-0.2-1.2-0.1-1c0.2,0.2,0.4,1,0.7,1.5s0.6,0.5,0.6,0.9s-0.3,0.7,0.3,1c0.7,0.2,1.2,0.8,1.6,0.7
			c0.4-0.1,0.6-0.3,0.8,0c0.2,0.2,0.5,0.6,0.9,0.6s0.5,0.2,0.6,0.6c0.1,0.3,0.3,0.4,0.7,0.5s0.5,0.5,0.7,0.4c0.3,0,0.6-0.1,0.6,0.1
			c0,0.2,0.1,0.9-0.3,1.2c-0.5,0.4-0.7,0.7-0.4,0.9c0.2,0.2,0,0.5-0.1,0.7s0.1,0.4,0.3,0.7s0.6,0.7,0.8,1.3s0.5,0.8,1,1
			s0.9,0.5,0.9,1s0,2.1,0,2.5c0,0.5,0.3,0.9,0.2,1.3c-0.1,0.4,0,0.7,0.1,0.8s0.1,0.4,0.1,0.7s0.4,0.1,0.4,0.4c0,0.3-0.2,0.7,0,0.8
			s-0.2,0.6,0.6,1.1s0.9,0.5,0.9,0.6c0.1,0.1,0.3-0.2,0.3,0c0,0.1-0.5,1,0.4,1s1.4-0.3,0.9-0.6c-0.5-0.4-0.8-0.2-0.9-0.6
			c-0.1-0.4-0.2-0.3-0.3-0.6c-0.1-0.2,0.2-0.4,0.1-0.6c-0.1-0.2-0.5-0.3-0.5-0.5s0.3-0.5,0.4-0.6c0.1-0.1,0.1-0.2-0.1-0.3
			c-0.2-0.1-0.1-0.1,0.1-0.2c0.2-0.1,0.2,0,0.3-0.2c0.1-0.3,0.4-0.2,0.5-0.3s0.6-0.2,0.4-0.6c-0.2-0.4-0.6-0.6-0.2-0.6
			c0.3,0,0.8,0,1-0.4s0.1-0.5,0.4-0.8c0.2-0.3,0.1-0.6,0.1-0.8s0-0.4,0.4-0.6c0.3-0.1,1.4-0.3,1.6-0.7c0.2-0.4,0.3-0.9,0.2-1.3
			c-0.1-0.4-0.1-0.7,0.2-1.1c0.3-0.4,0.8-0.7,0.8-1C189.8,197.4,190,197,189.4,196.8z"/>
		<path class="st5" d="M195.2,178.1c0.3-0.3,0.2-0.5,0.7-0.7s0.3-0.4,0.3-0.7c-0.1-0.3,0.2-0.2,0.4-0.3s0.3-0.2,0.7-0.2s0-0.2,0-0.3
			c0-0.2-0.3-0.1-0.7-0.1c-0.4,0.1-0.4,0-0.7-0.1s-2.1-0.1-2.6-0.1s-1.3,0.1-1.7,0.1s-0.4,0-1.2-0.1s-3,0-3.8,0.1s-1.2-0.1-1.8,0.2
			c-0.5,0.3-0.8,0.2-1.3,0.2c-0.6,0.1-1-0.1-1.3-0.1s-0.2-0.1-0.7,0c-0.5,0.2-0.3,0.3-0.5,0.1s-0.4,0-1.3,0.2
			c-0.9,0.2,0.4,0.9,0.7,0.9c0,0,0.6,0,0.9-0.1c0.3-0.1,0.5,0.1,0.7,0.1c0.2-0.1,0.3-0.2,1.5-0.5c1.2-0.2,2.1-0.1,2.6,0.1
			c0.5,0.2,0.5,0.1,0.9-0.2c0.4-0.2,1.2-0.4,1.9-0.6c0.8-0.1,0.3,0.1-0.2,0.3s-0.9,0.1-0.8,0.4c0.1,0.3,1,0.2,1.3,0.2
			s0.3,0.4,0.3,0.6c0,0.2,0,0.3,0,0.6c0.1,0.2,0.2,0.2-0.1,0.4s-0.4,0.2-0.4,0.6c0,0.4,0.2,0.8,0.6,1.1c0.4,0.3,0.7,0.3,0.9-0.1
			c0.2-0.4,0.8-0.7,1.1-0.9c0.3-0.1,0.7,0,1.1-0.3c0.4-0.3,0.9-0.2,1.5-0.4C194.9,178.3,194.8,178.4,195.2,178.1z"/>
		<path class="st5" d="M195.7,179.7c-0.9,0.1-1.8-0.2-1.6,0.3c0.2,0.4,0.2,1.3,0.7,1.1c0.8-0.2,1.6-0.5,1.4-0.9
			C196,179.8,196.6,179.6,195.7,179.7z"/>
		<path class="st5" d="M201.6,177.5C201.7,177.6,201.7,177.6,201.6,177.5c0.4,0.1,0.6,0,0.6-0.3c0.3-0.4,0.2,0.4,0.6,0.2
			c0.4-0.1,0.9-0.5,1.3-0.7c0.4-0.2-0.5-0.1-1.3-0.2c-0.8-0.1-1.8,0.1-2.1,0.3C200.4,177.1,201.2,177.4,201.6,177.5z"/>
		<path class="st5" d="M206.1,176.4c0,0-0.2,0.2,0.2,0.2s1.1-0.2,1.7-0.2c0.6,0,0.4-0.2,0.3-0.2c-0.1,0-0.5-0.3-0.9-0.3
			c-0.5,0-0.5,0.2-0.8,0.2s-0.2-0.1-0.9-0.1C205.2,176.1,205.8,176.3,206.1,176.4z"/>
		<path class="st5" d="M234.9,178c-0.1-0.3,0-0.9-1.1-0.9c-1.8,0.1-2.3,0-2.6,0c-0.3,0-0.2-0.2,0.1-0.2c0.2,0,0.2-0.2,0-0.4
			c-0.2-0.1-0.6,0-0.7,0.2s0.3,0.3-0.4,0.3c-0.7,0-1.7,0.9-2.5,0.8c-0.8-0.1-1.1-0.6-1.8-0.7c-0.7,0-1.3,0.6-2,0.6s-0.5-0.2-0.8-0.6
			c-0.3-0.3-0.5-0.2-1.4-0.2s-0.4,0.3-0.2,0.4c0.2,0.1,0.7,0.2,1,0.5s-0.6,0.2-1,0.2s-0.4-0.2-0.8-0.4c-0.5-0.2-1.6-0.1-2.2-0.1
			s-0.7,0-0.9-0.4c-0.2-0.4-0.8-0.2-1.4-0.2c-0.7,0-1-0.3-1.4-0.5c-0.3-0.2-0.9-0.2-1.6-0.3c-0.7-0.1-0.3,0.4-0.1,0.4
			c0,0,0.3,0.1,0.6,0.1s0.9,0.1,1.3,0.4c0.3,0.4-1,0.2-1.7,0.5c-0.6,0.3-1.1,0.2-1.5,0.3c-0.4,0.2,0.2,0.4,0.4,0.8
			c0.2,0.4,0,0.4-0.3,0.4c-0.3,0.1,0.1-0.4,0-0.5s-0.6-0.9-0.9-1.1c-0.4-0.2-0.3,0.2-0.2,0.5s0.2,0.3,0.2,0.5c0.1,0.2-0.4,0-0.6-0.2
			c-0.2-0.2-1,0.2-1.4,0.1c-0.4-0.2,0.1-0.1,0.1-0.3s-0.4,0-0.6-0.3c-0.1-0.2,0.8-0.6,1.3-0.6c0.6-0.1,0.5-0.1,0.5-0.3
			s-1-0.2-1.8,0.2s-0.6,0.6-0.7,0.9c-0.1,0.2,0.3,0.3,0.5,0.4c0.2,0.1-0.2,0.2-0.6,0.3c-0.4,0.1-0.5,0-0.9,0.1s-0.2,0.3-0.6,0.4
			c-0.4,0.1-0.3,0.1-0.6,0.2c-0.3,0.1,0.1-0.4,0.5-0.5s0.3-0.3,0.2-0.4c-0.1-0.1-0.9-0.3-1.8-0.5c-0.9-0.2-2.2,0.1-2.7,0.3
			s-0.4,0.3-0.5,0.6s-1.1,0.7-1.6,0.9s-0.1,0.6,0.1,0.8c0.2,0.2,0.5,0.1,0.9,0s0.4,0.4,0.4,0.5c0.1,0.2,0.3,0.2,0.7,0
			s0.3-0.6,0.3-0.8s-0.1-0.3,0.2-0.6s0.5-0.5,0.8-0.6c0.2-0.1,0.2,0.1-0.2,0.4c-0.4,0.3-0.1,0.4,0.1,0.7c0.2,0.3,0.6,0,1-0.1
			c0.5-0.1-0.4,0.4-0.7,0.4s0,0.3-0.2,0.3s-0.2,0.1-0.3,0.5c0,0.3-0.2,0.2-0.4,0.3s-0.6,0.1-1,0s-0.4-0.4-0.6-0.6
			c-0.3-0.2-0.3,0.1-0.3,0.2s-0.3,0.4-0.4,0.4c-0.1,0-0.5,0.3-0.7,0.6s-0.4,0.1-0.4,0c-0.1-0.1,0.2-0.3,0-0.6
			c-0.1-0.3-0.6-0.5-0.5-1.1c0.2-0.6-0.2-0.3-0.7-0.2s-0.6,0.2-0.7,0.4s-0.3,0.5-0.6,0.8s-0.1,0.6,0.1,0.9c0.2,0.3,0.6-0.1,0.7-0.4
			c0.1-0.3,0.3-0.4,0.5-0.3c0.2,0.1-0.3,0.4-0.3,0.7c-0.1,0.3,0.1,0.3,0.6,0.2c0.4-0.1,0.2-0.2,0.5-0.1c0.3,0.1-0.3,0.2-0.7,0.3
			c-0.4,0-0.2,0.3,0.1,0.5s0.2,0.6,0,0.6s-0.6,0.1-1.2,0.2c-0.6,0.1-0.1,0.6-0.2,0.8c-0.1,0.2-0.2,0.8,0.1,0.8s0.3,0.4,0.1,0.6
			c-0.2,0.1-0.2,0.3-0.6,0.5c-0.4,0.2-0.1,0.5-0.2,0.8c-0.1,0.3-0.4,0.1-0.8,0.5c-0.4,0.4-0.5,0.6-0.8,1.1c-0.3,0.4-0.3,0.4,0,0.9
			s0,0.6-0.3,1.1c-0.3,0.4,0.1,0.5,0.2,0.9c0.1,0.4,0.4,0.3,0.5,0.7s0.2,0.5,0.6,0.8c0.4,0.3,0.9,0.7,1.1,0.6
			c0.2-0.1,0.6-0.3,1.3-0.3s0.5-0.3,1.2-0.4c0.7-0.1,0.1,0.2,0.2,0.4c0.1,0.2,0.7,0.3,1.3,0.3s0.1,0.6,0.1,1s0,0.4,0.3,0.7
			s0.6,1.1,0.7,1.5c0.1,0.4-0.1,0.8-0.3,1.2s-0.2,1.2,0.4,1.8c0.5,0.6,0.2,0.6,0.2,1.2c0,0.6,0.4,0.5,0.6,0.9c0.3,0.4,0.2,1,0.4,1.4
			s0.7,0,1.2-0.1c0.5-0.2,0.7-0.1,1.3-0.5s1-1.2,1-1.4s0.2-0.3,0.5-0.4c0.3-0.1,0.2-0.8,0.2-1s0.1-0.4,0.2-0.5
			c0.1-0.1,0.9-0.8,1.2-1.1s0-0.7,0-1.1c-0.1-0.4-0.2-0.6-0.2-1.1s-0.2-0.5,0.8-1.3c1-0.9,2-2.2,2-2.5c0.1-0.3,0.1-0.6,0-0.8
			s-1.4,0.2-1.7,0.2s-1.1-0.6-1.1-0.8c-0.1-0.2-0.3-0.5-0.7-0.8s-0.1-0.8-0.4-1.2c-0.3-0.4-0.5-0.9-0.5-1.2
			c-0.1-0.3,0.5,0.2,0.9,0.6c0.4,0.4,0.9,1.2,1.1,1.5c0.2,0.3,0.3,0.7,0.3,1s0.3,0.4,0.6,0.4c0.4,0,1.7-0.6,2.1-0.8
			c0.5-0.2,1-0.8,1.2-1.3s-0.5-0.5-0.8-0.7c-0.3-0.3-0.3,0-0.7,0.1s-0.7-0.4-1.3-0.9s-0.2-0.3-0.1-0.4c0.1-0.1,0.7,0.2,1,0.6
			c0.3,0.4,0.4,0.2,0.8,0.2c0.4,0,0.5,0.2,1,0.3s0.8-0.1,1.2,0c0.4,0,0.4,0.2,0.7,0.7c0.3,0.4,0.2,0.3,0.9,0.4
			c0.7,0.1,0.2,0,0.2,0.4s0.1,0.5,0.5,1s0.5,1.4,0.7,1.8c0.1,0.4,0.4,0,0.8,0s-0.1,0.4,0.3,0.7c0.5,0.4,0.5-0.2,0.5-0.3
			c0-0.2-0.2-0.6-0.3-0.7c-0.2-0.1-0.4-0.1-0.2-0.3c0.2-0.2-0.2-0.4-0.2-0.7s0.1-0.7,0.3-0.9c0.2-0.1,0.9-0.5,1.2-0.9
			c0.3-0.4,0.6-0.4,1.1-0.4s0.1,0.1,0.4,0.4c0.3,0.3,0.3,0.8,0.6,1.1c0.3,0.3,0.3-0.1,0.6-0.2c0.2-0.1,0.1,0.3,0.3,0.7
			c0.2,0.3,0.1,0.8,0.1,1.1s0.4,0.6,0.6,0.9c0.2,0.3,0.2,0.4,0,0.5s-0.5-0.3-0.7-0.5s-0.6-0.1-0.4,0.2c0.2,0.2,0.4,0.7,0.7,1.2
			c0.3,0.5,0.9,1,1.3,1.5s1.7,0.7,2.2,0.7s1.5,0.4,2,0.4c0.5,0.1,0.9,0,1.2-0.2c0.3-0.2,0.2-0.4,0.2-0.4c0-0.1-0.3,0.1-0.6,0.1
			c-0.3,0.1-0.4,0.1-0.9,0.1c-0.4,0-0.2-0.1-0.6-0.2c-0.5,0-0.9-0.1-1.4-0.3s-0.8-0.3-1.2-0.4c-0.4-0.1,0-0.3-0.1-0.8
			c0-0.5-0.4-0.3-0.6-0.4c-0.3-0.2-0.2-0.5-0.1-0.4s0.2,0.2,0.2-0.3c0-0.6-0.6-1-0.9-1.5c-0.4-0.5-0.3-0.8-0.3-1s0.7,0.2,1,0.6
			c0.3,0.4,0.3,0.4,0.5,0.3c0.2-0.1,0.7-0.4,0.9-0.8c0.1-0.4-1-1.3-1.1-1.7c-0.2-0.4,0.2-0.2,0.4-0.4c0.2-0.3,0.4,0.1,0.3,0.3
			s0,0.3,0.2,0.5c0.1,0.2,0.1,0,0.2-0.2s0-0.3,0.2-0.5s1-0.4,1.3-0.6c0.2-0.2,0.4-0.4,0.6-1.1c0.3-0.7,0-0.7-0.2-0.9
			c-0.1-0.2-0.5-0.7-0.7-0.9s0-0.2,0.1-0.3c0.2-0.1,0-0.3-0.3-0.4c-0.4-0.1-0.3,0.1-0.6,0.1c-0.3-0.1-0.2-0.3,0.2-0.7
			c0.4-0.4,0.2,0.1,0.4,0.2c0.2,0.2,0.3-0.1,0.5-0.1c0.2,0.1,0.6,0.2,0.8,0.6c0.3,0.3,0.3,0.8,0.5,0.8c0.3,0,0.3-0.2,0.4-0.5
			c0.1-0.2-0.3-0.5-0.5-0.7s-0.5-0.2-0.3-0.3c0.2-0.2,0-0.4,0.1-0.6c0.1-0.2,0.4-0.1,0.8-0.2c0.3-0.1,0.4-0.6,0.4-1.1
			s-0.3-0.7-0.4-0.9c-0.2-0.2,0.2-0.1,0.5,0.1c0.3,0.2,0.7,1.2,0.8,1.7c0.1,0.4,0,0.4,0.4,0.8c0.4,0.4,0.2,0.3,0.1,0.7
			s-0.4,0.5-0.9,0.6s-0.3,0.2-0.6,0.6c-0.3,0.4,0.2,0.4,0.4,0.6c0.2,0.1,0.3-0.3,0.6-0.5c0.3-0.2,0.7-0.3,1.3-0.3
			c0.5,0-0.2-0.6-0.2-1c0-0.3-0.1-0.6-0.2-0.8s0.1-0.2,0.5-0.4s0.3-0.5,0.1-0.5c-0.2,0-0.4,0.1-0.9,0.1s-0.4-0.4-0.5-0.5
			s-0.3-0.4-0.3-0.7c0-0.2-0.5-0.6-0.8-0.8s-0.5-0.4-0.5-0.3c0,0.1-0.2,0-0.6-0.1c-0.4,0-0.5,0.1-0.9,0c-0.4,0,0-0.6,0.2-1
			s0.6-0.2,0.9-0.2s1.5-1.3,2-1.2s0.3-0.3,0.4-0.6s0.3-0.1,0.6,0c0.3,0.1,0.4,0.1,0.4-0.1c0-0.2,0.2-0.3,0.5-0.1
			c0.1,0.1,0.1,0.3,0,0.4c-0.1,0.3-0.1,0.6-0.1,0.9c0,0.3,0.1,0.6,0.3,0.7c0.3,0.2,0.2,1.1,0.6,1.3s0.3-0.4,0.3-0.9
			s-0.2-1.3-0.5-1.7s-0.1-0.2,0.4-0.2s0.6-0.2,0.7-0.3s0.2-0.2,0.7-0.2s0.2-0.2,0-0.4s-0.6-0.2-0.5-0.3c0.2-0.1,1,0.1,1.4,0.2
			C235.1,178.4,235,178.3,234.9,178z M206.4,187.2c-0.2,0.3-0.3,0.6-0.5,0.5c-0.3-0.1-1.2-0.1-1.7-0.2c-0.5-0.1-1.1-0.4-1.3-0.1
			c-0.1,0.3,0.3,0.6-0.5,0.3c-0.8-0.2-1.6-0.6-1.7-0.8c-0.1-0.2,0.3-0.8-0.2-0.8c-0.6,0-1.3,0-1.6,0.1c-0.2,0.2-1.2,0.5-1.5,0.4
			s-0.7-0.2-0.2-0.4s1.1-0.1,1.1-0.4c0.1-0.3-0.4-0.3,0.1-0.6c0.5-0.2,0.3-0.5,0.6-0.6s0.8-0.1,1-0.2c0.2-0.1-0.1-0.2,0.4,0.1
			c0.5,0.2,0.8,0.7,1,0.7s0.4,0.2,0.2,0.3s-0.4,0.2-0.5,0.2s-0.2,0.2-0.1,0.2c0.1,0,0.3,0.4,0.5,0.3c0.2-0.1-0.1-0.3,0.2-0.4
			c0.3-0.1,0.6-0.2,0.5-0.3c-0.1-0.2-0.2-0.4,0-0.2c0.2,0.1,0.5,0.1,0.3-0.2c-0.3-0.2-0.4-0.3-0.8-0.5c-0.3-0.2-0.7-0.3-0.7-0.5
			s-0.2-0.5,0.1-0.4s1.5,0.7,1.5,0.9s0.3,0.6,0,0.8s0.3,0.2,0.4,0.4c0.1,0.1,0.1,0.4,0.4,0.4c0.3-0.1,0.6,0,0.4-0.3
			c-0.2-0.3-0.5-0.4-0.2-0.6c0.3-0.1,0.4-0.2,0.5,0.2c0.1,0.5,0,0.6,0.7,0.7c0.7,0,1.2-0.2,1.3,0
			C206.5,186.5,206.6,186.9,206.4,187.2z M207.6,185.1c-0.5,0-1.2,0-1.6,0c-0.4,0-0.8,0.1-0.8,0.1c-0.3-0.1-1-0.1-0.6-0.5
			c0.4-0.5,0.2-1.1,0.6-0.9c0.5,0.2,0.5,0.8,0.8,0.4c0.3-0.4,0.7-0.8,0.7-0.5c0.1,0.3-0.4,0.6,0.2,0.8
			C207.7,184.7,208.1,185.1,207.6,185.1z M210.6,186.3c-0.5,0-1.1-0.2-1.1-0.5c0-0.2-0.1-0.5-0.1-0.5c-0.2-0.6-0.6-0.7-0.6-1
			c0-0.4,0.4-0.6,0.9-0.6s1.1,0,0.7,0.4c-0.4,0.4-1.1,0.4-0.6,1C210.3,185.6,211.1,186.3,210.6,186.3z"/>
		<path class="st5" d="M227.3,190.2c0.2,0.1,0.3-0.8-0.1-0.7C226.7,189.6,227,190.1,227.3,190.2z"/>
		<path class="st5" d="M227.8,192.9c0.2,0.1,0.2,0.3,0.2,0.7c0,0.3-0.4,0.3,0.2,0.5s1.3,0.6,1.1-0.1c-0.2-0.7,0-0.8-0.7-1.3
			c-0.6-0.5-0.7-0.2-0.7-0.6c-0.1-0.4-0.2-1.2-0.5-0.9c-0.2,0.3-0.4,0.4-0.1,0.8S227.6,192.7,227.8,192.9z"/>
		<path class="st5" d="M226.5,193.9c-0.2,0.2-0.6,0.8-0.9,1s-0.8-0.1-0.7,0.4c0,0.4,0.1,0.6,0.1,0.9c0,0.3,0.1,0.5,0.6,0.5
			s0.8,0.2,0.9,0.1c0.2-0.1,0.1-0.3,0.3-0.7c0.2-0.4,0.6-0.3,0.4-0.6c-0.1-0.3-0.1-0.2-0.1-0.5s0.2-0.1,0.1-0.6
			C227.2,194,226.8,193.7,226.5,193.9z"/>
		<path class="st5" d="M233.8,196.8c-0.4-0.4-1.2-0.7-1.5-0.7s-0.6,0.5-0.8,0.3c-0.2-0.2-0.7-0.9-1-0.7s0,0.5-0.3,0.5
			s-0.4,0.4-0.5-0.1s-0.3-0.7-0.4-0.4c-0.1,0.4-0.1,0.6-0.3,0.3c-0.2-0.3-0.3-0.1-0.3-0.4c0-0.3-0.7-0.6-1-0.3
			c-0.2,0.2-0.2,0.2-0.3,0.7c-0.1,0.4-0.2,1.1,0.1,0.9c0.4-0.2,0.4,0,0.6-0.2s0.4-0.3,0.7-0.2c0.3,0.1,0.2,0.1,0.7,0.1
			c0.6-0.1,0.8-0.1,1.2,0.2c0.4,0.2,1.1,0.1,1.1,0.3s-0.8,0.4,0,0.6c0.8,0.2,1,0.7,1.2,0.5s0.6-0.6,0.8-0.3c0.2,0.2,1.2,0.9,1,0.6
			c-0.2-0.4-0.1-0.7,0.4-1.1c0.5-0.4,0.4-0.6,0.2-0.6c-0.2,0-0.2,0.3-0.8,0.3C234.3,197,234.2,197.3,233.8,196.8z"/>
		<path class="st5" d="M234,200.8c-0.3-0.7-0.3-1.3-0.5-1.6s0-0.7-0.5-0.7c-0.2,0-0.2,0.1-0.4,0.5s0,1.2-0.4,1.1
			c-0.4-0.1-0.7-0.3-0.8-0.7c-0.1-0.4,0.1-0.8-0.2-0.8c-0.3,0-1.3-0.2-1.5,0.1s0.1,0.5-0.4,0.5s-0.7,0-1,0.3s-0.7,1.2-2.1,1.2
			c-1.5,0.1-0.7,0.8-0.7,1.6s-0.8,1.2-0.4,1.5c0.3,0.3-0.1,0.7,0.6,0.4c0.7-0.2,1.4-0.3,2.5-0.4c1.1-0.2,1.6-0.2,1.7,0.3
			c0,0.5-0.1,0.2,0.3,0.2c0.4,0.1,0,0.7,0.5,0.8s0.1,0.5,0.5,0.5s0.3,0.3,0,0.3c-0.4,0-0.4,0.9,0.2,0.6c0.6-0.2,1-0.5,1-0.8
			c0-0.4-0.1-0.4,0.6-0.9s2.2-1.6,2.1-2.5C234.7,201.6,234.3,201.6,234,200.8z"/>
	</g>
</g>
<g>
	<path class="st6" d="M227.5,142.2h-16.7c-8.3,0-15,6.7-15,15v1c0,8.3,6.7,15,15,15h5.4l-3.4,9l12.9-9h1.8c8.3,0,14.9-6.7,14.9-15
		v-1C242.5,148.9,235.9,142.2,227.5,142.2z"/>
	<g>
		<path class="st15" d="M210.9,173.2h5.4l-3.4,9l12.9-9h1.8c8.2,0,14.8-6.5,14.9-14.7h-46.6C196,166.7,202.6,173.2,210.9,173.2z"/>
	</g>
	<circle class="st16" cx="207.4" cy="158.5" r="3.4"/>
	<circle class="st16" cx="219.2" cy="158.5" r="3.4"/>
	<circle class="st16" cx="231" cy="158.5" r="3.4"/>
</g>
<g>
	<path class="st17" d="M250.8,158.1h12c6,0,10.8,4.9,10.8,10.8v0.7c0,6-4.9,10.8-10.8,10.8h-3.9l2.4,6.4l-9.3-6.4h-1.3
		c-6,0-10.8-4.8-10.8-10.8v-0.7C240,162.9,244.8,158.1,250.8,158.1z"/>
	<g>
		<path class="st0" d="M262.8,180.5h-3.9l2.4,6.4l-9.3-6.4h-1.3c-5.9,0-10.7-4.8-10.8-10.5h33.6
			C273.5,175.7,268.7,180.5,262.8,180.5z"/>
	</g>
</g>
<g>
	<path class="st16" d="M185.5,152.8v6.2h6.1c0,3.4-2.8,6.1-6.1,6.1c-3.4,0-6.1-2.7-6.1-6.1S182.1,152.8,185.5,152.8z"/>
	<path class="st13" d="M186.3,152c3.4,0,6,2.8,6,6.1v0.1h-6V152z"/>
</g>
<path class="st10" d="M194.5,142.6c-3.7,2.1-4,3.4-1.9,7.1c-2.1-3.7-3.4-4-7.1-1.9c3.7-2.1,4-3.4,1.9-7.1
	C189.6,144.4,190.9,144.7,194.5,142.6z"/>
<path class="st10" d="M181.7,146.2c-1.7,1-1.9,1.6-0.9,3.4c-1-1.7-1.6-1.9-3.4-0.9c1.7-1,1.9-1.6,0.9-3.4
	C179.4,147,180,147.2,181.7,146.2z"/>
<path class="st10" d="M263.6,152.8c-1.7,1-1.9,1.6-0.9,3.4c-1-1.7-1.6-1.9-3.4-0.9c1.7-1,1.9-1.6,0.9-3.4
	C261.2,153.7,261.8,153.8,263.6,152.8z"/>
<path class="st10" d="M252.9,147c-2.7,3.3-2.5,4.7,0.8,7.3c-3.3-2.7-4.6-2.5-7.3,0.8c2.7-3.3,2.5-4.7-0.8-7.3
	C248.9,150.5,250.2,150.3,252.9,147z"/>
<path class="st10" d="M175.8,157c-2.7,3.3-2.5,4.7,0.8,7.3c-3.3-2.7-4.6-2.5-7.3,0.8c2.7-3.3,2.5-4.7-0.8-7.3
	C171.8,160.4,173.2,160.3,175.8,157z"/>
<g>
	<path class="st7" d="M171,148.5c-1.9,0-3.4,1.5-3.4,3.4s1.6,3.4,3.5,3.4c0.6,0,1.1-0.1,1.5-0.4l-1.7-3.1L171,148.5z"/>
	<path class="st17" d="M171.5,148l-0.1,3.7l3.5,1c0.1-0.4,0.2-0.8,0.1-1.2C175,149.6,173.5,148.1,171.5,148z"/>
	<polyline class="st0" points="173.7,155.3 171.3,151.9 175.3,153.3 	"/>
	<path class="st0" d="M175.3,153.3l-4-1.4l2.4,3.4C174.4,154.8,175,154.1,175.3,153.3z"/>
</g>
<g>
	<rect x="251.6" y="206.8" class="st13" width="0.8" height="2.8"/>
	<rect x="252.8" y="206.8" class="st13" width="0.9" height="2.8"/>
	<polygon class="st13" points="254.5,200.9 255.7,205 254.8,205.1 253.7,201 	"/>
	<polygon class="st13" points="250.7,200.9 249.5,205 250.4,205.1 251.6,201 	"/>
	<circle class="st13" cx="252.5" cy="199.8" r="1"/>
	<circle class="st13" cx="258.7" cy="199.7" r="1"/>
	<polygon class="st13" points="261,204.9 259.9,200.9 258.7,200.9 257.6,200.9 256.5,204.9 257.2,204.9 257.5,204.1 257.5,209.6 
		258.5,209.6 258.5,206.2 258.7,206.2 259,206.2 259,209.6 260,209.6 260,204.1 260.3,204.9 	"/>
	<polygon class="st13" points="253.3,201 252.6,201 251.9,201 250.4,206.5 252.6,206.5 254.8,206.5 	"/>
</g>
<path class="st0" d="M243.4,226.7c1.3,1.2,3.5,0.9,4.9-0.6l0,0c1.4-1.5,1.5-3.8,0.2-4.9l-8.5-7.9c-0.6-1-5.8,5.1-5.1,5.6
	L243.4,226.7z"/>
<path class="st13" d="M241.9,227L241.9,227c-0.3-0.2-0.3-0.6-0.1-0.8l6-6.5c0.2-0.2,0.6-0.2,0.8,0l1.5,1.4l0,0l10.8,9.9
	c2.7,2.5,3.4,6.2,1.6,8.2c-1.9,2-5.6,1.6-8.3-0.9L241.9,227L241.9,227z"/>
<path class="st17" d="M210.8,219.4c8.4,7.8,21.6,7.3,29.4-1.2c7.8-8.4,7.3-21.6-1.2-29.4c-8.4-7.8-21.6-7.3-29.4,1.2
	C201.9,198.5,202.4,211.6,210.8,219.4z M219,218.3c-1.6-0.7-3.2-1.6-4.5-2.9c-6.2-5.7-6.6-15.4-0.8-21.7c2.8-3.1,6.6-4.7,10.4-4.9
	c4-0.2,8,1.1,11.2,4.1c6.2,5.7,6.6,15.4,0.9,21.7C231.7,219.4,224.8,220.7,219,218.3z"/>
<ellipse transform="matrix(0.9577 -0.2878 0.2878 0.9577 -49.2665 73.375)" class="st18" cx="224.9" cy="204.3" rx="15.3" ry="15.3"/>
<path class="st19" d="M214.4,215.3c1.4,1.3,2.9,2.2,4.4,2.8l0,0c-4-18.4,4.9-29.1,5.2-29.4c-3.8,0.2-7.6,1.8-10.4,4.9
	C207.8,199.9,208.2,209.6,214.4,215.3z"/>
<rect x="159.8" y="207.7" class="st20" width="2" height="5.5"/>
<rect x="162.6" y="205.9" class="st20" width="2" height="7.3"/>
<rect x="171.1" y="205.9" class="st20" width="2" height="7.3"/>
<rect x="165.5" y="199" class="st20" width="2" height="14.2"/>
<rect x="168.3" y="201.9" class="st20" width="2" height="11.3"/>
<rect x="174" y="197" class="st20" width="2" height="16.2"/>
</svg>
